# Blender v2.82 (sub 7) OBJ File: 'testTable.blend'
# www.blender.org
mtllib testTable.mtl
o TableTop_Cube.001
v 1.000000 1.299977 -1.000000
v 1.000000 0.606556 -1.000000
v 1.000000 1.299977 1.000000
v 1.000000 0.606556 1.000000
v -1.000000 1.299977 -1.000000
v -1.000000 0.606556 -1.000000
v -1.000000 1.299977 1.000000
v -1.000000 0.606556 1.000000
vt 0.875000 0.500000
vt 0.625000 0.750000
vt 0.625000 0.500000
vt 0.375000 0.500000
vt 0.125000 0.750000
vt 0.125000 0.500000
vt 0.875000 0.750000
vt 0.375000 0.750000
vn 0.0000 1.0000 0.0000
vn 0.0000 -1.0000 0.0000
usemtl TableRed
s off
f 5/1/1 3/2/1 1/3/1
usemtl TableGreen
f 2/4/2 8/5/2 6/6/2
usemtl TableRed
f 5/1/1 7/7/1 3/2/1
usemtl TableGreen
f 2/4/2 4/8/2 8/5/2
